<svg id="Capa_1" enable-background="new 0 0 512 512" height="512" viewBox="0 0 512 512" width="512" xmlns="http://www.w3.org/2000/svg" xmlns:xlink="http://www.w3.org/1999/xlink"><linearGradient id="SVGID_1_" gradientUnits="userSpaceOnUse" x1="301.908" x2="193.897" y1="-54.974" y2="650.097"><stop offset="0" stop-color="#ffa052"/><stop offset="1" stop-color="#fff" stop-opacity="0"/></linearGradient><g><path d="m338.92 70.183c-1.369 0-2.734.012-4.096.037-33.932.616-66.631-11.72-93.007-33.075-23.389-18.936-53.236-30.21-85.724-29.998-74.135.484-135.234 63.074-134.007 137.2.33 19.96 4.996 38.864 13.096 55.813 13.801 28.879 10.825 63.235-8.352 88.861-7.92 10.584-14.402 22.515-19.061 35.605-24.826 69.757 11.848 147.296 81.551 172.272 70.982 25.434 148.823-12.162 173.19-83.256 1.805-5.266 3.265-10.567 4.393-15.878 7.162-33.729 36.586-57.876 71.067-57.732.317.001.634.002.951.002 95.59 0 173.08-60.408 173.08-134.925s-77.492-134.926-173.081-134.926z" fill="url(#SVGID_1_)"/><g><path d="m377 308.612h-3v-3c0-2.762-2.238-5-5-5s-5 2.238-5 5v3h-3c-2.762 0-5 2.238-5 5s2.238 5 5 5h3v3c0 2.762 2.238 5 5 5s5-2.238 5-5v-3h3c2.762 0 5-2.238 5-5s-2.238-5-5-5z" fill="#c182f9"/><path d="m101.407 269.095h-3v-3c0-2.762-2.238-5-5-5s-5 2.238-5 5v3h-3c-2.762 0-5 2.238-5 5s2.238 5 5 5h3v3c0 2.762 2.238 5 5 5s5-2.238 5-5v-3h3c2.762 0 5-2.238 5-5s-2.238-5-5-5z" fill="#c182f9"/><path d="m319.785 32.123h-3v-3c0-2.762-2.238-5-5-5s-5 2.238-5 5v3h-3c-2.762 0-5 2.238-5 5s2.238 5 5 5h3v3c0 2.762 2.238 5 5 5s5-2.238 5-5v-3h3c2.762 0 5-2.238 5-5s-2.238-5-5-5z" fill="#fdd250"/><path d="m418.593 306.504c-1.279 0-2.56-.488-3.535-1.465l-4.465-4.464-4.465 4.464c-1.951 1.953-5.119 1.953-7.07 0-1.953-1.952-1.953-5.118 0-7.07l8-8c1.951-1.953 5.119-1.953 7.07 0l8 8c1.953 1.952 1.953 5.118 0 7.07-.976.977-2.256 1.465-3.535 1.465z" fill="#ffa052"/><path d="m109.407 362.025c-1.279 0-2.56-.488-3.535-1.465l-4.465-4.464-4.465 4.464c-1.951 1.953-5.119 1.953-7.07 0-1.953-1.952-1.953-5.118 0-7.07l8-8c1.951-1.953 5.119-1.953 7.07 0l8 8c1.953 1.952 1.953 5.118 0 7.07-.975.977-2.255 1.465-3.535 1.465z" fill="#fdd250"/><g><path d="m442.333 144.141h-3v-12.333c0-8.271-6.729-15-15-15h-48.666v-15.333c0-2.761-2.239-5-5-5h-229.334c-2.761 0-5 2.239-5 5v15.333h-48.666c-8.271 0-15 6.729-15 15v12.333h-3c-2.761 0-5 2.239-5 5v46.516c0 12.762 3.287 25.383 9.507 36.499l3.906 6.981c1.348 2.41 4.395 3.271 6.805 1.922l3.741-2.093c12.288 14.442 30.576 23.629 50.98 23.629h14.394c.107 0 .207-.025.312-.031 3.321 37.863 34.45 67.734 72.849 69.071v31.225l-28.367 34.333h-35.794c-11.046 0-20 8.954-20 20v53.333c0 2.761 2.239 5 5 5h216c2.761 0 5-2.239 5-5v-53.333c0-11.046-8.954-20-20-20h-37.215l-28.367-34.333v-31.191c39.049-.639 70.909-30.776 74.27-69.105.105.007.205.031.312.031h14.395c20.404 0 38.692-9.187 50.98-23.629l3.741 2.093c2.41 1.348 5.457.488 6.805-1.922l3.906-6.981c6.22-11.116 9.507-23.737 9.507-36.499v-46.516c-.001-2.762-2.24-5-5.001-5zm-288.333 108.454h-14.395c-16.649 0-31.65-7.184-42.071-18.613l1.313-.734c2.41-1.348 3.271-4.395 1.922-6.805l-3.906-6.982c-4.054-7.245-6.196-15.477-6.196-23.804v-46.516c0-2.761-2.239-5-5-5h-3v-12.333c0-2.757 2.243-5 5-5h66.333zm275.333-108.454h-3c-2.761 0-5 2.239-5 5v46.516c0 8.327-2.143 16.559-6.196 23.804l-3.906 6.982c-1.348 2.41-.488 5.457 1.922 6.805l1.313.734c-10.421 11.429-25.422 18.613-42.071 18.613h-14.395v-125.787h66.333c2.757 0 5 2.243 5 5z" fill="#590bb2" opacity=".1"/><g><path d="m282.157 304.698h-52.315c-41.887 0-75.843-33.956-75.843-75.843v-144.051h204v144.051c.001 41.887-33.955 75.843-75.842 75.843z" fill="#ffe783"/><path d="m154 84.804h204v30.003h-204z" fill="#fdd250"/><g><circle cx="256" cy="188.751" fill="#ffc136" r="65.971"/><g fill="#fff"><path d="m256 240.144c-28.338 0-51.393-23.055-51.393-51.393s23.055-51.393 51.393-51.393 51.393 23.055 51.393 51.393-23.055 51.393-51.393 51.393zm0-92.786c-22.824 0-41.393 18.568-41.393 41.393s18.568 41.393 41.393 41.393 41.393-18.568 41.393-41.393-18.569-41.393-41.393-41.393z"/><path d="m256 240.144c-16.433 0-25.3-26.479-25.3-51.393s8.867-51.393 25.3-51.393 25.3 26.479 25.3 51.393-8.867 51.393-25.3 51.393zm0-92.786c-6.238 0-15.3 16.125-15.3 41.393 0 11.718 1.963 22.656 5.526 30.8 2.858 6.534 6.604 10.593 9.773 10.593 6.238 0 15.3-16.125 15.3-41.393 0-11.718-1.963-22.656-5.526-30.8-2.858-6.534-6.603-10.593-9.773-10.593z"/><g><path d="m256 179.119c-16.36 0-31.757-3.646-41.187-9.754-2.318-1.501-2.98-4.597-1.479-6.914s4.598-2.981 6.914-1.479c7.877 5.101 21.241 8.146 35.751 8.146 14.5 0 28.301-3.188 36.017-8.321 2.301-1.529 5.404-.904 6.933 1.394 1.529 2.3.905 5.403-1.394 6.933-9.409 6.259-24.943 9.995-41.555 9.995z"/><path d="m217.104 217.619c-1.61 0-3.19-.776-4.155-2.213-1.54-2.292-.93-5.398 1.362-6.938 9.4-6.314 24.985-10.085 41.689-10.085 16.36 0 31.757 3.646 41.187 9.754 2.318 1.501 2.98 4.597 1.479 6.914s-4.598 2.981-6.914 1.479c-7.877-5.101-21.241-8.146-35.751-8.146-14.575 0-28.413 3.213-36.113 8.386-.857.574-1.826.849-2.784.849z"/></g></g></g><path d="m370.667 94.808h-229.334c-2.761 0-5-2.239-5-5v-15.334c0-2.761 2.239-5 5-5h229.333c2.761 0 5 2.239 5 5v15.333c.001 2.762-2.238 5.001-4.999 5.001z" fill="#fff4c5"/><g><g><path d="m427.116 214.059-13.963-7.812c-2.41-1.348-3.271-4.395-1.922-6.805l3.906-6.982c4.054-7.245 6.196-15.477 6.196-23.804v-46.516c0-2.761 2.239-5 5-5h16c2.761 0 5 2.239 5 5v46.516c0 12.762-3.287 25.383-9.507 36.499l-3.905 6.981c-1.349 2.41-4.395 3.271-6.805 1.923z" fill="#ffe783"/></g><g><path d="m84.884 214.059c-2.41 1.348-5.457.488-6.805-1.922l-3.905-6.981c-6.22-11.116-9.507-23.737-9.507-36.499v-46.516c0-2.761 2.239-5 5-5h16c2.761 0 5 2.239 5 5v46.516c0 8.327 2.143 16.559 6.196 23.804l3.906 6.982c1.348 2.41.488 5.457-1.922 6.805z" fill="#ffe783"/></g></g></g><path d="m227.161 304.698h56.257v31.161h-56.257z" fill="#ffa052"/><path d="m227.161 304.698h56.257v17.828h-56.257z" fill="#ff8736"/><path d="m311.785 370.192-28.367-34.333h-56.257l-28.367 34.333z" fill="#ffc136"/><path d="m364 448.526h-216c-2.761 0-5-2.239-5-5v-53.333c0-11.046 8.954-20 20-20h186c11.046 0 20 8.954 20 20v53.333c0 2.761-2.239 5-5 5z" fill="#ffe783"/><path d="m442.333 112.141h-3v-7.333c0-8.271-6.729-15-15-15h-43.666v-15.333c0-5.514-4.486-10-10-10h-229.334c-5.514 0-10 4.486-10 10v15.333h-43.666c-8.271 0-15 6.729-15 15v7.333h-3c-5.514 0-10 4.486-10 10v46.516c0 13.615 3.508 27.08 10.144 38.94l3.905 6.982c1.831 3.271 5.238 5.114 8.744 5.114 1.651 0 3.324-.409 4.865-1.271l4.772-2.669c12.136 12.242 28.948 19.842 47.508 19.842h9.697c3.228 38.895 34.09 70.056 72.859 73.729v24.738l-25.721 31.131h-33.44c-13.785 0-25 11.215-25 25v53.333c0 5.514 4.486 10 10 10h216c5.514 0 10-4.486 10-10v-53.333c0-13.785-11.215-25-25-25h-34.86l-25.722-31.131v-24.629c39.431-3.038 71.012-34.47 74.279-73.837h9.697c18.559 0 35.364-7.605 47.498-19.848l4.782 2.675c1.541.862 3.214 1.271 4.865 1.271 3.506 0 6.913-1.844 8.744-5.115l3.905-6.981c6.636-11.86 10.144-25.325 10.144-38.94v-46.516c.001-5.515-4.485-10.001-9.999-10.001zm-301-37.666h229.334l.006 15.333h-229.34zm-58.891 135.22-3.905-6.981c-5.803-10.371-8.87-22.148-8.87-34.058v-46.516h16v46.516c0 9.181 2.362 18.256 6.833 26.245l3.906 6.982zm195.976 121.164h-46.257v-21.161h46.257zm5 44.333h65.582c8.271 0 15 6.729 15 15v53.333h-216v-53.333c0-8.271 6.729-15 15-15h89.817c2.762 0 5-2.238 5-5s-2.238-5-5-5h-43.406l20.104-24.333h51.548l20.105 24.333h-17.75c-2.762 0-5 2.238-5 5s2.238 5 5 5zm-1.261-75.494h-52.314c-39.063 0-70.843-31.78-70.843-70.843v-96.048c0-2.762-2.238-5-5-5s-5 2.238-5 5v92.787h-9.395c-14.781 0-28.251-5.677-38.382-14.947l.067-.037c4.812-2.694 6.535-8.8 3.843-13.609l-3.906-6.982c-3.637-6.501-5.56-13.888-5.56-21.362v-46.516c0-5.514-4.486-10-10-10h-3v-7.333c0-2.757 2.243-5 5-5h66.333 199v129.048c0 39.062-31.78 70.842-70.843 70.842zm90.238-74.103h-9.395v-125.787h61.333c2.757 0 5 2.243 5 5v7.333h-3c-5.514 0-10 4.486-10 10v46.516c0 7.475-1.923 14.861-5.56 21.362l-3.906 6.981c-2.692 4.811-.969 10.916 3.844 13.61l.066.037c-10.129 9.273-23.6 14.948-38.382 14.948zm69.938-56.939c0 11.909-3.067 23.687-8.87 34.058l-3.899 6.984-.005-.003c-.001 0-.001 0-.001 0l-13.964-7.812 3.906-6.982c4.471-7.989 6.833-17.064 6.833-26.245v-46.516h16z" fill="#590bb2"/><path d="m328 426.526h-144c-2.761 0-5-2.239-5-5v-23.333c0-2.761 2.239-5 5-5h144c2.761 0 5 2.239 5 5v23.333c0 2.761-2.239 5-5 5z" fill="#c182f9"/><g><path d="m292.76 414.859h-73.52c-2.762 0-5-2.239-5-5s2.238-5 5-5h73.52c2.762 0 5 2.239 5 5s-2.239 5-5 5z" fill="#fff"/></g></g></g></g></svg>