<svg id="Capa_1" enable-background="new 0 0 512 512" height="512" viewBox="0 0 512 512" width="512" xmlns="http://www.w3.org/2000/svg" xmlns:xlink="http://www.w3.org/1999/xlink"><linearGradient id="SVGID_1_" gradientTransform="matrix(0 -1 1 0 1064 -552)" gradientUnits="userSpaceOnUse" x1="-548.383" x2="-1032.841" y1="-151.739" y2="-1506.137"><stop offset="0" stop-color="#ffa052"/><stop offset="1" stop-color="#fff" stop-opacity="0"/></linearGradient><g><g><path d="m180.252.001c-100.63.534-151.151 173.599-170.006 262.559-18.855 88.961.847 271.458 147.096 247.249 23.64-3.913 29.158-4.715 48.645-14.497 34.685-17.411 75.734-29.661 112.83-33.359 15.211-1.516 34.445-6.538 44.624-8.368 81.626-14.679 164.928-93.76 139.709-176.622-18.939-62.228-74.428-87.278-129.998-83.834-30.518 1.891-62.997-16.011-69.51-35.788-21.214-64.417-45.612-157.752-123.39-157.34z" fill="url(#SVGID_1_)"/></g><g><path d="m254.111 56.145-126.275 51.521c-4.148 1.692-4.148 7.566 0 9.259l126.275 51.521c1.211.494 2.567.494 3.778 0l126.275-51.521c4.148-1.692 4.148-7.566 0-9.259l-126.275-51.521c-1.211-.494-2.567-.494-3.778 0z" fill="#590bb2" opacity=".1"/><path d="m481.99 401.25v25.21c0 5.52-4.47 10-10 10h-431.98c-5.53 0-10-4.48-10-10v-25.21c0-5.52 4.47-10 10-10h136.005c1.451 0 2.831.63 3.78 1.728l12.875 14.872h126.66l12.875-14.872c.95-1.097 2.329-1.728 3.78-1.728h136.005c5.53 0 10 4.48 10 10z" fill="#590bb2" opacity=".1"/><path d="m452.044 387.934h-392.088v-249.734c0-9.505 7.705-17.21 17.21-17.21h357.669c9.505 0 17.21 7.705 17.21 17.21v249.734z" fill="#c182f9"/><path d="m481.99 374.25v25.21c0 5.52-4.47 10-10 10h-431.98c-5.53 0-10-4.48-10-10v-25.21c0-5.52 4.47-10 10-10h136.005c1.451 0 2.831.63 3.78 1.728l12.875 14.872h126.66l12.875-14.872c.95-1.097 2.329-1.728 3.78-1.728h136.005c5.53 0 10 4.48 10 10z" fill="#e2ccff"/><path d="m423.828 340.276h-335.656c-2.761 0-5-2.239-5-5v-184.432c0-2.761 2.239-5 5-5h335.656c2.761 0 5 2.239 5 5v184.432c0 2.761-2.238 5-5 5z" fill="#fff"/><path d="m428.828 211v-60.156c0-2.761-2.239-5-5-5h-335.656c-2.761 0-5 2.239-5 5v60.156z" fill="#ffd5b8"/><g><g><g><path d="m400.541 257.907h-175.52c-2.762 0-5-2.239-5-5s2.238-5 5-5h175.52c2.762 0 5 2.239 5 5s-2.238 5-5 5z" fill="#ffa052"/></g><g><path d="m400.541 275.409h-175.52c-2.762 0-5-2.239-5-5s2.238-5 5-5h175.52c2.762 0 5 2.239 5 5s-2.238 5-5 5z" fill="#ffa052"/></g><g><path d="m400.541 292.912h-175.52c-2.762 0-5-2.239-5-5s2.238-5 5-5h175.52c2.762 0 5 2.239 5 5s-2.238 5-5 5z" fill="#ffa052"/></g><g><path d="m400.541 300.415c2.762 0 5 2.239 5 5s-2.238 5-5 5h-175.52c-2.762 0-5-2.239-5-5s2.238-5 5-5z" fill="#ffa052"/></g></g><g><g><g><path d="m160.979 257.907h-49.52c-2.762 0-5-2.239-5-5s2.238-5 5-5h49.52c2.762 0 5 2.239 5 5s-2.239 5-5 5z" fill="#c182f9"/></g><g><path d="m187.979 275.409h-76.52c-2.762 0-5-2.239-5-5s2.238-5 5-5h76.52c2.762 0 5 2.239 5 5s-2.239 5-5 5z" fill="#c182f9"/></g></g><g><g><path d="m187.979 292.912h-76.52c-2.762 0-5-2.239-5-5s2.238-5 5-5h76.52c2.762 0 5 2.239 5 5s-2.239 5-5 5z" fill="#c182f9"/></g><g><path d="m187.979 310.415h-76.52c-2.762 0-5-2.239-5-5s2.238-5 5-5h76.52c2.762 0 5 2.239 5 5s-2.239 5-5 5z" fill="#c182f9"/></g></g><g fill="#ffa052"><circle cx="113.006" cy="234.856" r="5"/><circle cx="129.256" cy="234.856" r="5"/></g></g></g><path d="m100.5 63.35h-3v-3c0-2.761-2.239-5-5-5s-5 2.239-5 5v3h-3c-2.761 0-5 2.239-5 5s2.239 5 5 5h3v3c0 2.761 2.239 5 5 5s5-2.239 5-5v-3h3c2.761 0 5-2.239 5-5s-2.239-5-5-5z" fill="#ffa052"/><path d="m170.333 461.5h-3v-3c0-2.761-2.239-5-5-5s-5 2.239-5 5v3h-3c-2.761 0-5 2.239-5 5s2.239 5 5 5h3v3c0 2.761 2.239 5 5 5s5-2.239 5-5v-3h3c2.761 0 5-2.239 5-5s-2.238-5-5-5z" fill="#ffa052"/><path d="m431.828 81.316h-3v-3c0-2.761-2.238-5-5-5s-5 2.239-5 5v3h-3c-2.762 0-5 2.239-5 5s2.238 5 5 5h3v3c0 2.761 2.238 5 5 5s5-2.239 5-5v-3h3c2.762 0 5-2.239 5-5s-2.238-5-5-5z" fill="#c182f9"/><path d="m144.219 48.667c-1.28 0-2.559-.488-3.536-1.464l-4.464-4.464-4.464 4.464c-1.953 1.952-5.118 1.952-7.071 0-1.953-1.953-1.953-5.119 0-7.071l8-8c1.953-1.952 5.118-1.952 7.071 0l8 8c1.953 1.953 1.953 5.119 0 7.071-.977.975-2.256 1.464-3.536 1.464z" fill="#fdd250"/><path d="m230.271 483.646c-1.28 0-2.559-.488-3.536-1.464l-4.464-4.464-4.464 4.464c-1.953 1.952-5.118 1.952-7.071 0-1.953-1.953-1.953-5.119 0-7.071l8-8c1.953-1.952 5.118-1.952 7.071 0l8 8c1.953 1.953 1.953 5.119 0 7.071-.977.975-2.257 1.464-3.536 1.464z" fill="#c182f9"/><path d="m345.33 94.76v95.29c0 2.03-1.23 3.86-3.12 4.63l-84.32 34.41c-1.21.49-2.57.49-3.78 0l-84.32-34.41c-1.89-.77-3.12-2.6-3.12-4.63v-95.29z" fill="#b557ff"/><path d="m345.33 94.76v27.21l-81.77 33.36c-2.41.99-4.96 1.49-7.56 1.49s-5.15-.5-7.56-1.49l-81.77-33.36v-27.21z" fill="#9526dd"/><path d="m254.111 29.145-126.275 51.521c-4.148 1.692-4.148 7.566 0 9.259l126.275 51.521c1.211.494 2.567.494 3.778 0l126.275-51.521c4.148-1.692 4.148-7.566 0-9.259l-126.275-51.521c-1.211-.494-2.567-.494-3.778 0z" fill="#c182f9"/><path d="m329.562 317h-25.123c-2.761 0-5-2.239-5-5v-29.029c0-9.699 7.863-17.562 17.562-17.562 9.699 0 17.562 7.863 17.562 17.562v29.029c-.001 2.761-2.24 5-5.001 5z" fill="#ffc136"/><circle cx="317" cy="254.462" fill="#ffe783" r="19.269"/><path d="m471.99 359.25h-14.946v-221.05c0-12.247-9.963-22.209-22.21-22.209h-84.508v-6.859l35.727-14.577c3.78-1.542 6.223-5.176 6.223-9.258 0-4.083-2.442-7.717-6.223-9.26l-126.275-51.521c-2.435-.995-5.12-.995-7.556 0l-126.275 51.521c-3.78 1.542-6.222 5.177-6.222 9.26 0 4.082 2.443 7.716 6.223 9.258l35.727 14.577v80.919c0 4.083 2.442 7.717 6.223 9.259l84.325 34.405c1.218.498 2.499.746 3.778.746 1.28 0 2.56-.249 3.777-.746l52.222-21.307v18.306c-10.991 2.311-19.269 12.08-19.269 23.748 0 5.97 2.171 11.439 5.759 15.671-2.541 3.649-4.052 8.065-4.052 12.838v29.029c0 5.514 4.486 10 10 10h25.123c5.514 0 10-4.486 10-10v-29.029c0-4.775-1.496-9.205-4.038-12.854 3.58-4.229 5.745-9.693 5.745-15.655 0-11.668-8.278-21.437-19.269-23.748v-22.386l22.104-9.018c3.78-1.542 6.223-5.177 6.223-9.259v-64.06h84.508c6.732 0 12.21 5.477 12.21 12.209v226.05c0 2.761 2.238 5 5 5h19.946c2.757 0 5 2.243 5 5v25.21c0 2.757-2.243 5-5 5h-431.98c-2.757 0-5-2.243-5-5v-25.21c0-2.757 2.243-5 5-5h136.005l12.875 14.873c.95 1.097 2.329 1.728 3.78 1.728h126.66c1.451 0 2.83-.63 3.78-1.728l12.874-14.873h85.459c2.762 0 5-2.239 5-5s-2.238-5-5-5h-85.459c-2.904 0-5.66 1.26-7.56 3.455l-11.38 13.145h-122.09l-11.379-13.145c-1.9-2.196-4.656-3.455-7.561-3.455h-111.058v-221.05c0-6.732 5.477-12.209 12.209-12.209h58.904c2.761 0 5-2.239 5-5s-2.239-5-5-5h-58.903c-12.246 0-22.209 9.963-22.209 22.209v221.05h-14.947c-8.271 0-15 6.729-15 15v25.21c0 8.271 6.729 15 15 15h431.98c8.271 0 15-6.729 15-15v-25.21c0-8.271-6.728-15-15-15zm-148.323-47.25v-15c0-2.761-2.238-5-5-5s-5 2.239-5 5v15h-9.229v-29.029c0-2.461.726-4.747 1.956-6.685 3.206 1.564 6.805 2.445 10.606 2.445 3.8 0 7.397-.88 10.603-2.443 1.23 1.937 1.959 4.222 1.959 6.684l.006 29.028zm7.602-57.538c0 7.868-6.4 14.269-14.269 14.269s-14.269-6.401-14.269-14.269 6.4-14.269 14.269-14.269 14.269 6.401 14.269 14.269zm-75.269-220.688 126.275 51.521-67.327 27.47-70.442-31.025c-2.528-1.114-5.479.032-6.591 2.561-1.113 2.527.033 5.478 2.561 6.591l61.594 27.129-46.07 18.796-126.275-51.522zm0 190.682-84.326-34.406v-76.839l80.548 32.864c1.218.498 2.499.746 3.778.746 1.28 0 2.56-.249 3.777-.746l52.223-21.306v76.839zm66-26.928v-76.839l18.326-7.477v76.839z" fill="#590bb2"/></g></g></svg>