<?xml version="1.0" encoding="utf-8"?>
<!-- Generator: Adobe Illustrator 18.0.0, SVG Export Plug-In . SVG Version: 6.00 Build 0)  -->
<!DOCTYPE svg PUBLIC "-//W3C//DTD SVG 1.1//EN" "http://www.w3.org/Graphics/SVG/1.1/DTD/svg11.dtd">
<svg version="1.1" id="Layer_1" xmlns="http://www.w3.org/2000/svg" xmlns:xlink="http://www.w3.org/1999/xlink" x="0px" y="0px"
	 viewBox="0 604.2 711.9 168.7" enable-background="new 0 604.2 711.9 168.7" xml:space="preserve">
<g>
	<path fill="#333333" d="M262.6,742.8h-18.4c-8.9,0-15.8-2.4-20.6-7.1c-4.8-4.7-7.3-11.5-7.3-20.4v-53.5c0-8.9,2.4-15.7,7.3-20.4
		c4.8-4.7,11.7-7.1,20.6-7.1h18.4c8.8,0,15.6,2.4,20.5,7.2c4.9,4.8,7.3,11.6,7.3,20.3v7.9c0,2.5-1.2,3.7-3.7,3.7h-14.2
		c-2.4,0-3.5-1.2-3.5-3.7v-6.9c0-3.6-0.8-6.2-2.3-7.7s-4.1-2.3-7.7-2.3h-11.5c-3.5,0-6,0.8-7.5,2.3s-2.3,4.1-2.3,7.7v51.5
		c0,3.6,0.8,6.2,2.3,7.7s4,2.3,7.5,2.3h11.5c3.6,0,6.2-0.8,7.7-2.3s2.3-4.1,2.3-7.7v-6.9c0-2.5,1.2-3.7,3.5-3.7h14.2
		c2.5,0,3.7,1.2,3.7,3.7v7.9c0,8.8-2.4,15.6-7.3,20.3C278.2,740.5,271.4,742.8,262.6,742.8z"/>
	<path fill="#333333" d="M338.2,742.8h-5.6c-8.7,0-15.2-2.4-19.7-7.1c-4.4-4.7-6.7-11.5-6.7-20.4v-55c0-2.4,1.2-3.5,3.5-3.5h14.3
		c2.4,0,3.5,1.2,3.5,3.5v54c0,3.6,0.8,6.2,2.3,7.7s4,2.3,7.5,2.3h6.2c7.8,0,11.6-4.3,11.6-12.8v-51.1c0-2.4,1.2-3.5,3.5-3.5h14.2
		c2.5,0,3.7,1.2,3.7,3.5v79c0,2.4-1.2,3.5-3.7,3.5H359c-2.4,0-3.5-1.2-3.5-3.5v-5.6h-0.7c-1.2,3-3.4,5.3-6.6,6.8
		C345,742.1,341.7,742.8,338.2,742.8z"/>
	<path fill="#333333" d="M413.3,742.8H399c-2.4,0-3.5-1.2-3.5-3.5v-79c0-2.4,1.2-3.5,3.5-3.5h14.3c2.4,0,3.5,1.2,3.5,3.5v5.7h0.7
		c1.2-3,3.4-5.3,6.6-6.9c3.1-1.6,6.5-2.4,10-2.4h6.1c2.3,0,3.4,1.2,3.4,3.5V672c0,1.3-0.3,2.3-0.8,2.8c-0.5,0.5-1.4,0.7-2.6,0.6
		h-11.6c-7.8,0-11.6,4.4-11.6,13.2v50.8C416.9,741.7,415.7,742.8,413.3,742.8z"/>
	<path fill="#333333" d="M486.9,742.8h-32.1c-2.3,0-3.4-1.2-3.4-3.5v-10.8c0-1.2,0.2-2.1,0.7-2.6c0.4-0.5,1.4-0.8,2.7-0.8H483
		c5.5,0,8.3-1.7,8.3-5.1v-0.8c0-2.7-2.3-5.3-6.9-7.8l-16.7-9.3c-5.7-2.9-10-6.1-12.7-9.5c-2.7-3.4-4.1-7.7-4.1-13
		c0-7.9,2.1-13.7,6.2-17.4c4.2-3.7,10.7-5.6,19.6-5.6H505c2.2,0,3.4,1.2,3.4,3.5v11c0,1.2-0.2,2.1-0.7,2.6c-0.5,0.5-1.4,0.8-2.7,0.8
		h-23.5c-5.5,0-8.3,1.4-8.3,4.2v0.8c0,2.5,2.4,5,7.3,7.6l17,10.1c5.8,3.2,10,6.4,12.3,9.7c2.4,3.3,3.5,7.7,3.5,13.1
		C513.4,735.3,504.6,742.8,486.9,742.8z"/>
	<path fill="#333333" d="M559.3,742.8h-5.6c-8.7,0-15.2-2.4-19.7-7.1c-4.4-4.7-6.7-11.5-6.7-20.4v-55c0-2.4,1.2-3.5,3.5-3.5h14.3
		c2.4,0,3.5,1.2,3.5,3.5v54c0,3.6,0.8,6.2,2.3,7.7s4,2.3,7.5,2.3h6.2c7.8,0,11.6-4.3,11.6-12.8v-51.1c0-2.4,1.2-3.5,3.5-3.5h14.2
		c2.5,0,3.7,1.2,3.7,3.5v79c0,2.4-1.2,3.5-3.7,3.5H580c-2.4,0-3.5-1.2-3.5-3.5v-5.6h-0.7c-1.2,3-3.4,5.3-6.6,6.8
		C566.1,742.1,562.8,742.8,559.3,742.8z"/>
	<path fill="#333333" d="M649.1,742.8H617c-2.3,0-3.4-1.2-3.4-3.5v-10.8c0-1.2,0.2-2.1,0.7-2.6c0.4-0.5,1.4-0.8,2.7-0.8h28.2
		c5.5,0,8.3-1.7,8.3-5.1v-0.8c0-2.7-2.3-5.3-6.9-7.8l-16.7-9.3c-5.7-2.9-10-6.1-12.7-9.5c-2.7-3.4-4.1-7.7-4.1-13
		c0-7.9,2.1-13.7,6.2-17.4c4.2-3.7,10.7-5.6,19.6-5.6h28.2c2.2,0,3.4,1.2,3.4,3.5v11c0,1.2-0.2,2.1-0.7,2.6
		c-0.5,0.5-1.4,0.8-2.7,0.8h-23.5c-5.5,0-8.3,1.4-8.3,4.2v0.8c0,2.5,2.4,5,7.3,7.6l17,10.1c5.8,3.2,10,6.4,12.3,9.7
		c2.4,3.3,3.5,7.7,3.5,13.1C675.6,735.3,666.7,742.8,649.1,742.8z"/>
</g>
<g>
	<path fill="#FFFFFF" d="M78.9,660.3l41.1,23.6c7.1,3.9,7.1,14.2,0,18.1l-41.1,23.9c-7.1,3.9-15.7-1.1-15.7-9v-47.5
		C63.2,661.4,71.8,656.4,78.9,660.3z"/>
	<g>
		<path fill="#ED2A26" d="M183.9,629.3c0,7.5-6.1,13.5-13.5,13.5c-7.5,0-13.5-6.1-13.5-13.5c0-7.5,6.1-13.5,13.5-13.5
			C177.9,615.8,183.9,621.9,183.9,629.3z"/>
		<path fill="#ED2A26" d="M151.5,611.2c-0.1,3.7-3.2,6.6-6.9,6.5c-3.7-0.1-6.6-3.2-6.4-6.9c0.1-3.7,3.2-6.6,6.9-6.5
			C148.8,604.4,151.7,607.5,151.5,611.2z"/>
		<path fill="#ED2A26" d="M15.7,751.5c-0.2,4.3-3.8,7.7-8.1,7.5c-4.3-0.2-7.7-3.8-7.5-8.1c0.2-4.3,3.8-7.7,8.1-7.5
			C12.5,743.6,15.8,747.2,15.7,751.5z"/>
	</g>
	<g>
		<path fill="#DA1F27" d="M123.1,674.5c0,0.3,0,0.5,0,0.8c19.1,10.5,33.7,28.6,39.2,50.6c5.5-12,8-25.6,6.8-39.7
			c-3.7-43-40.9-75.1-83.7-72.9C106.2,626.2,120.9,648.3,123.1,674.5z"/>
		<path fill="#ED2A26" d="M10,699.9c0.4,4.3,1.1,8.5,2.1,12.6c11.5-25.5,36.1-44.1,65.9-46.7c16.3-1.4,31.8,2.2,45.1,9.5
			c0-0.3,0-0.5,0-0.8c-2.3-26.2-16.9-48.4-37.7-61.2c-0.9,0-1.8,0.1-2.7,0.2C38.8,617.3,6.2,656,10,699.9z"/>
		<path fill="#AF1F24" d="M123.2,675.3c3.3,43.6-29.1,81.9-72.8,85.6c-0.9,0.1-1.8,0.1-2.7,0.2c14.1,8.7,30.9,13.1,48.7,11.6
			c29.8-2.6,54.4-21.2,65.9-46.7C156.8,703.9,142.3,685.8,123.2,675.3z"/>
		<path fill="#C72127" d="M123.2,675.3c-13.3-7.3-28.9-10.9-45.1-9.5c-29.8,2.6-54.4,21.2-65.9,46.7c5.2,20.7,18.2,37.9,35.6,48.6
			c0.9,0,1.8-0.1,2.7-0.2C94.1,757.2,126.5,718.9,123.2,675.3z"/>
	</g>
	<path fill="#FFFFFF" d="M77.2,657l46.7,26.9c8,4.5,8,16.1,0,20.5l-46.7,27.1c-8,4.5-17.8-1.2-17.8-10.3v-54
		C59.4,658.3,69.2,652.6,77.2,657z"/>
</g>
</svg>
