<svg id="Capa_1" enable-background="new 0 0 512 512" height="512" viewBox="0 0 512 512" width="512" xmlns="http://www.w3.org/2000/svg" xmlns:xlink="http://www.w3.org/1999/xlink"><linearGradient id="SVGID_1_" gradientUnits="userSpaceOnUse" x1="503.472" x2="20.423" y1="540.362" y2="-14.694"><stop offset="0" stop-color="#ffa052"/><stop offset="1" stop-color="#fff" stop-opacity="0"/></linearGradient><g><path d="m500.574 200.6c7.18-16.204 11.241-34.098 11.419-52.921.684-71.971-56.211-132.099-128.121-135.166-23.591-1.006-45.905 4.091-65.495 13.843-39.321 19.575-85.436 19.575-124.757 0-19.589-9.752-41.903-14.849-65.494-13.843-71.908 3.068-128.803 63.194-128.12 135.166.179 18.823 4.239 36.717 11.419 52.921 15.628 35.269 15.628 75.53 0 110.8-7.18 16.204-11.241 34.099-11.419 52.922-.683 71.972 56.212 132.098 128.122 135.165 23.591 1.006 45.905-4.091 65.494-13.843 39.321-19.575 85.435-19.575 124.755 0 19.589 9.752 41.904 14.849 65.495 13.843 71.909-3.067 128.804-63.194 128.121-135.165-.179-18.823-4.239-36.717-11.419-52.921-15.628-35.271-15.628-75.532 0-110.801z" fill="url(#SVGID_1_)"/><g><path d="m437.04 179.338h-362.08c-8.29 0-15 6.71-15 15v203.94c0 8.29 6.71 15 15 15h126.18v23.5c0 4.02 4.5 6.39 7.82 4.13l13.31-9.07 13.31 9.07c3.32 2.26 7.82-.11 7.82-4.13v-23.5h193.64c8.29 0 15-6.71 15-15v-203.94c0-8.29-6.71-15-15-15z" fill="#590bb2" opacity=".1"/><g><g><path d="m452.04 167.338v203.94c0 8.29-6.71 15-15 15h-362.08c-8.29 0-15-6.71-15-15v-203.94c0-8.29 6.71-15 15-15h362.08c8.29 0 15 6.71 15 15z" fill="#fdd250"/><path d="m419 152.338v210.18c0 5.52-4.48 10-10 10h-143c-2.76 0-5.26-1.12-7.07-2.93s-2.93-4.31-2.93-7.07c0 5.52-4.48 10-10 10h-143c-5.52 0-10-4.48-10-10v-210.18z" fill="#ffc136"/><g><path d="m452.042 339.884h-392.086v-172.548c0-8.284 6.716-15 15-15h362.086c8.284 0 15 6.716 15 15z" fill="#ffa052"/></g><g><path d="m243.4 348.158v61.62c0 4.02-4.5 6.39-7.82 4.13l-13.31-9.07-13.31 9.07c-3.32 2.26-7.82-.11-7.82-4.13v-61.62z" fill="#ffa052"/><path d="m201.14 348.158h42.26v24.36h-42.26z" fill="#ff8736"/></g></g><g><path d="m256 155.548v189.42c0 5.52-4.48 10-10 10h-143c-5.52 0-10-4.48-10-10v-204.42c0-5.52 4.48-10 10-10h128c13.81 0 25 11.19 25 25z" fill="#fff"/><g><path d="m206.25 229.808c-3.79 2.82-7.4 4.23-10.83 4.23-3.09 0-5.6-1.45-7.53-4.36-1.94-2.82-2.91-7.22-2.91-13.21v-67.61c0-6.87-2.18-12.98-6.54-18.31h-26.8c1.13.73 2.2 1.55 3.23 2.46 5.37 4.75 8.06 10.48 8.06 17.17v18.75c-25.1 2.82-45.19 8.48-60.29 16.97-3.66 2.06-6.87 4.25-9.64 6.56v48.68c6.4 3.98 15 5.97 25.82 5.97 8.89 0 16.51-1.47 22.84-4.42 6.34-2.95 13.69-8.83 22.06-17.63 3.08 8.19 6.67 13.91 10.76 17.17 4.1 3.25 9.14 4.88 15.13 4.88 7.83 0 14.96-3.3 21.39-9.9zm-43.32-34.47c0 11.89-3.81 21.77-11.43 29.65-7.61 7.88-16.62 11.82-27 11.82-5.82 0-10.53-1.91-14.14-5.74s-5.41-9.14-5.41-15.92c0-9.68 3.48-17.17 10.43-22.45 9.33-6.95 25.18-11.97 47.55-15.05zm-51.11-32.42c2.55-2.51 3.83-5.74 3.83-9.71 0-2.72-1.28-5.85-3.83-9.37-2.12-2.82-3.17-4.89-3.17-6.21 0-2.29 1.98-4.62 5.94-7 .05-.03.1-.06.15-.08h-11.74c-5.52 0-10 4.48-10 10v23.54c2.51 1.73 5.44 2.59 8.78 2.59 4.14 0 7.48-1.25 10.04-3.76z" fill="#efebff"/></g><path d="m266 354.968h142.999c5.523 0 10-4.477 10-10v-204.418c0-5.523-4.477-10-10-10h-127.999c-13.807 0-25 11.193-25 25v189.418c0 5.523 4.477 10 10 10z" fill="#fff"/><path d="m395.02 130.55v79.56c0 2.76-2.24 5-5 5h-105.08c-2.76 0-5-2.24-5-5v-79.54c.35-.01.71-.02 1.06-.02z" fill="#f7f3ff"/></g></g><path d="m105 462c-1.28 0-2.559-.488-3.536-1.464l-4.464-4.465-4.464 4.464c-1.953 1.952-5.118 1.952-7.071 0-1.953-1.953-1.953-5.119 0-7.071l8-8c1.953-1.952 5.118-1.952 7.071 0l8 8c1.953 1.953 1.953 5.119 0 7.071-.977.977-2.256 1.465-3.536 1.465z" fill="#c182f9"/><path d="m255.999 88c-1.28 0-2.559-.488-3.536-1.464l-4.464-4.464-4.464 4.464c-1.953 1.952-5.118 1.952-7.071 0-1.953-1.953-1.953-5.119 0-7.071l8-8c1.953-1.952 5.118-1.952 7.071 0l8 8c1.953 1.953 1.953 5.119 0 7.071-.977.976-2.256 1.464-3.536 1.464z" fill="#fdd250"/><path d="m460.044 117h-3v-3c0-2.761-2.239-5-5-5s-5 2.239-5 5v3h-3c-2.761 0-5 2.239-5 5s2.239 5 5 5h3v3c0 2.761 2.239 5 5 5s5-2.239 5-5v-3h3c2.761 0 5-2.239 5-5s-2.239-5-5-5z" fill="#c182f9"/><path d="m295.833 53.333h-3v-3c0-2.761-2.239-5-5-5s-5 2.239-5 5v3h-3c-2.761 0-5 2.239-5 5s2.239 5 5 5h3v3c0 2.761 2.239 5 5 5s5-2.239 5-5v-3h3c2.761 0 5-2.239 5-5s-2.238-5-5-5z" fill="#ffa052"/><path d="m75.666 424.066h-3v-3c0-2.761-2.239-5-5-5s-5 2.239-5 5v3h-3c-2.761 0-5 2.239-5 5s2.239 5 5 5h3v3c0 2.761 2.239 5 5 5s5-2.239 5-5v-3h3c2.761 0 5-2.239 5-5s-2.238-5-5-5z" fill="#ffa052"/><path d="m227.223 327h-106.573c-2.761 0-5-2.239-5-5v-18.772c0-2.761 2.239-5 5-5h106.573c2.761 0 5 2.239 5 5v18.772c0 2.761-2.238 5-5 5z" fill="#fdd250"/><g><path d="m390.018 197.12h-105.074c-2.761 0-5-2.239-5-5v-93.805c0-2.761 2.239-5 5-5h105.074c2.761 0 5 2.239 5 5v93.805c0 2.761-2.238 5-5 5z" fill="#ffa052"/><path d="m395.018 122v-23.685c0-2.761-2.239-5-5-5h-105.074c-2.761 0-5 2.239-5 5v23.685z" fill="#ffe783"/><path d="m437.044 147.335h-13.045v-6.786c0-8.271-6.729-15-15-15h-8.981v-27.234c0-5.514-4.486-10-10-10h-50.718c-2.761 0-5 2.239-5 5s2.239 5 5 5h50.718v93.805h-105.074v-93.805h23.756c2.761 0 5-2.239 5-5s-2.239-5-5-5h-23.755c-5.514 0-10 4.486-10 10v27.867c-7.876 1.621-14.638 6.329-18.946 12.808-5.379-8.093-14.575-13.441-24.999-13.441h-128c-8.271 0-15 6.729-15 15v6.786h-13.044c-11.028 0-20 8.972-20 20v203.945c0 11.028 8.972 20 20 20h121.187v18.498c0 3.716 2.041 7.103 5.325 8.84 3.287 1.737 7.235 1.517 10.305-.576l10.498-7.152 10.498 7.152c1.695 1.155 3.657 1.739 5.628 1.739 1.6 0 3.205-.385 4.677-1.164 3.285-1.737 5.325-5.124 5.325-8.84v-18.497h188.646c11.028 0 20-8.972 20-20v-203.945c-.001-11.027-8.973-20-20.001-20zm-176.044 8.215c0-8.914 5.872-16.455 13.944-19.025v55.594c0 5.514 4.486 10 10 10h105.074c5.514 0 10-4.486 10-10v-56.57h8.981c2.757 0 5 2.243 5 5v204.418c0 2.757-2.243 5-5 5h-142.999c-2.757 0-5-2.243-5-5zm-186.044 225.73c-5.514 0-10-4.486-10-10v-203.945c0-5.514 4.486-10 10-10h13.044v47.365c0 2.761 2.239 5 5 5s5-2.239 5-5v-64.15c0-2.757 2.243-5 5-5h127.999c11.028 0 20 8.972 20 20v189.418c0 2.757-2.243 5-5 5h-142.999c-2.757 0-5-2.243-5-5v-109.668c0-2.761-2.239-5-5-5s-5 2.239-5 5v109.667c0 8.271 6.729 15 15 15h93.143v21.312h-121.187zm163.442 28.497-13.313-9.069c-1.698-1.157-3.932-1.157-5.63 0l-13.313 9.07v-49.81h32.26l.022 49.825c.001 0-.008-.004-.026-.016zm208.646-38.497c0 5.514-4.486 10-10 10h-188.646v-21.522c2.895-.469 5.51-1.764 7.602-3.642 2.657 2.386 6.157 3.852 10.001 3.852h142.999c8.271 0 15-6.729 15-15v-187.633h13.045c5.514 0 10 4.486 10 10v203.945z" fill="#590bb2"/></g><path d="m324.069 143.559v24.317c0 2.316 2.513 3.758 4.513 2.591l20.825-12.159c1.983-1.158 1.983-4.024 0-5.182l-20.825-12.159c-2.001-1.167-4.513.276-4.513 2.592z" fill="#fff"/><g><g><g><path d="m227.223 165.717h-64.52c-2.762 0-5-2.239-5-5s2.238-5 5-5h64.52c2.762 0 5 2.239 5 5s-2.238 5-5 5z" fill="#c182f9"/></g><g><path d="m227.223 185.22h-64.52c-2.762 0-5-2.239-5-5s2.238-5 5-5h64.52c2.762 0 5 2.239 5 5s-2.238 5-5 5z" fill="#c182f9"/></g><path d="m227.223 204.723h-64.52c-2.762 0-5-2.239-5-5s2.238-5 5-5h64.52c2.762 0 5 2.239 5 5s-2.238 5-5 5z" fill="#c182f9"/><g><path d="m227.223 224.225h-64.52c-2.762 0-5-2.239-5-5s2.238-5 5-5h64.52c2.762 0 5 2.239 5 5s-2.238 5-5 5z" fill="#c182f9"/></g><g><path d="m227.223 243.728h-64.52c-2.762 0-5-2.239-5-5s2.238-5 5-5h64.52c2.762 0 5 2.239 5 5s-2.238 5-5 5z" fill="#c182f9"/></g></g><g><g><path d="m227.223 263.231h-106.573c-2.762 0-5-2.239-5-5s2.238-5 5-5h106.573c2.762 0 5 2.239 5 5s-2.238 5-5 5z" fill="#c182f9"/></g><g><path d="m227.223 282.734h-106.573c-2.762 0-5-2.239-5-5s2.238-5 5-5h106.573c2.762 0 5 2.239 5 5s-2.238 5-5 5z" fill="#c182f9"/></g></g></g><g><g><g><path d="m394.573 229.225h-64.52c-2.762 0-5-2.239-5-5s2.238-5 5-5h64.52c2.762 0 5 2.239 5 5s-2.238 5-5 5z" fill="#c182f9"/></g><g><path d="m394.573 248.728h-64.52c-2.762 0-5-2.239-5-5s2.238-5 5-5h64.52c2.762 0 5 2.239 5 5s-2.238 5-5 5z" fill="#c182f9"/></g><path d="m394.573 268.231h-64.52c-2.762 0-5-2.239-5-5s2.238-5 5-5h64.52c2.762 0 5 2.239 5 5s-2.238 5-5 5z" fill="#c182f9"/><g><path d="m394.573 287.734h-64.52c-2.762 0-5-2.239-5-5s2.238-5 5-5h64.52c2.762 0 5 2.239 5 5s-2.238 5-5 5z" fill="#c182f9"/></g><g><path d="m394.573 307.236h-64.52c-2.762 0-5-2.239-5-5s2.238-5 5-5h64.52c2.762 0 5 2.239 5 5s-2.238 5-5 5z" fill="#c182f9"/></g></g><g><g><path d="m394.573 326.739h-64.52c-2.762 0-5-2.239-5-5s2.238-5 5-5h64.52c2.762 0 5 2.239 5 5s-2.238 5-5 5z" fill="#c182f9"/></g></g></g><path d="m309 327h-24.056c-2.761 0-5-2.239-5-5v-97.774c0-2.761 2.239-5 5-5h24.056c2.761 0 5 2.239 5 5v97.774c0 2.761-2.239 5-5 5z" fill="#c182f9"/><g fill="#ffa052"><circle cx="299.333" cy="110.667" r="3.5"/><circle cx="310.5" cy="110.667" r="3.5"/><circle cx="321.667" cy="110.667" r="3.5"/></g></g></g></svg>