<svg xmlns="http://www.w3.org/2000/svg" width="64" height="64" viewBox="0 0 64 64"><g transform="translate(0 -996.387)"><rect style="isolation:auto;mix-blend-mode:normal" width="5" height="12" x="30" y="1037.362" fill="#ffc107" color="#000" overflow="visible" rx="0" ry="0"/><g transform="rotate(-15 34.603 1037.119)"><path fill="none" stroke="#f44336" stroke-linecap="round" stroke-linejoin="round" d="m 16.5,1028.5321 0,4 c 0,0.554 -0.445992,0.8805 -0.999983,0.732 l -3.000052,-0.8038 c -0.55399,-0.1485 -0.999982,-0.714 -0.999982,-1.268 l 0,-4" color="#000" overflow="visible" style="isolation:auto;mix-blend-mode:normal"/><rect width="4" height="5" x="5" y="1024.362" fill="#f44336" color="#000" overflow="visible" rx="0" ry="0" style="isolation:auto;mix-blend-mode:normal"/><path fill="#e9eded" d="m 9,1024.3622 13,-4 0,13 -13,-4 z" color="#000" overflow="visible" style="isolation:auto;mix-blend-mode:normal"/><rect width="2" height="15" x="22" y="1019.362" fill="#f44336" color="#000" overflow="visible" rx="1" ry="1" style="isolation:auto;mix-blend-mode:normal"/><path fill="#b0bec5" style="isolation:auto;mix-blend-mode:normal" d="m 9,1024.3622 13,-4 0,1 -13,4 z" color="#000" overflow="visible"/><rect style="isolation:auto;mix-blend-mode:normal" width="4" height="1" x="5" y="1024.362" fill="#d22e2e" color="#000" overflow="visible" rx="0" ry="0"/><rect width="2" height="19" x="6" y="1023.362" fill="#e9eded" color="#000" overflow="visible" style="isolation:auto;mix-blend-mode:normal" rx="1" ry="1"/><rect width="1" height="2" x="4" y="1025.362" fill="#d22e2e" color="#000" overflow="visible" style="isolation:auto;mix-blend-mode:normal"/><path fill="#d22e2e" d="m 23,1019.3622 c -0.554,0 -1,0.446 -1,1 l 0,2 c 0,-0.554 0.446,-1 1,-1 0.554,0 1,0.446 1,1 l 0,-2 c 0,-0.554 -0.446,-1 -1,-1 z" color="#000" overflow="visible" style="isolation:auto;mix-blend-mode:normal"/><path fill="#b0bec5" d="m 7,35 c -0.554,0 -1,0.446 -1,1 l 0,1 c 0,-0.554 0.446,-1 1,-1 0.554,0 1,0.446 1,1 L 8,36 C 8,35.446 7.554,35 7,35 Z" color="#000" overflow="visible" transform="translate(0 988.362)" style="isolation:auto;mix-blend-mode:normal"/></g><path fill="none" stroke="#455a64" stroke-linecap="round" stroke-linejoin="round" d="M23.680463 1028.9047l3.609371-.9671M24.076674 1030.8645l3.41658 1.1598M23.042562 1027.0052l2.380166-2.7082"/><rect width="5" height="19" x="38" y="1030.362" fill="#ff9800" color="#000" overflow="visible" rx="0" ry="0" style="isolation:auto;mix-blend-mode:normal"/><rect style="isolation:auto;mix-blend-mode:normal" width="5" height="27" x="46" y="1022.362" fill="#f44336" color="#000" overflow="visible" rx="0" ry="0"/><rect width="5" height="36" x="54" y="1013.362" fill="#4caf50" color="#000" overflow="visible" rx="0" ry="0" style="isolation:auto;mix-blend-mode:normal"/><path fill="none" stroke="#0277bd" d="m 18,1048.8622 44.000001,0"/><path fill="none" stroke="#263238" d="m 30,1033.8622 4.5,0 0,-7 8,0 0,-8 8,0 0,-9 8.6,0"/><path fill="none" stroke="#263238" d="m 57.353552,1007.766 2.12132,2.1213 -2.12132,2.1213"/></g></svg>